<?xml version="1.0" standalone="no"?>
<!DOCTYPE svg PUBLIC "-//W3C//DTD SVG 20010904//EN"
 "http://www.w3.org/TR/2001/REC-SVG-20010904/DTD/svg10.dtd">
<svg version="1.0" xmlns="http://www.w3.org/2000/svg"
 width="531.000000pt" height="468.000000pt" viewBox="0 0 531.000000 468.000000"
 preserveAspectRatio="xMidYMid meet">

<g transform="translate(0.000000,468.000000) scale(0.100000,-0.100000)"
fill="#000000" stroke="none">
<path d="M1180 2416 l0 -2006 645 0 645 0 0 644 0 645 638 4 c550 3 647 6 707
20 133 32 210 59 310 108 357 176 591 505 673 944 26 142 23 457 -6 600 -109
546 -472 914 -1005 1022 -73 14 -223 17 -1344 20 l-1263 4 0 -2005z m2102
1026 c171 -57 261 -239 230 -469 -24 -178 -116 -286 -274 -323 -24 -5 -205
-10 -410 -10 l-368 0 0 408 c0 225 3 412 7 416 5 4 174 6 378 4 348 -4 374 -6
437 -26z"/>
</g>
</svg>
